<?xml version="1.0" encoding="UTF-8" standalone="no"?>
<!-- Created with Inkscape (http://www.inkscape.org/) -->

<svg
   width="168.08649mm"
   height="159.00641mm"
   viewBox="0 0 168.08649 159.00641"
   version="1.1"
   id="svg1"
   xml:space="preserve"
   xmlns:inkscape="http://www.inkscape.org/namespaces/inkscape"
   xmlns:sodipodi="http://sodipodi.sourceforge.net/DTD/sodipodi-0.dtd"
   xmlns="http://www.w3.org/2000/svg"
   xmlns:svg="http://www.w3.org/2000/svg"><sodipodi:namedview
     id="namedview1"
     pagecolor="#ffffff"
     bordercolor="#000000"
     borderopacity="0.25"
     inkscape:showpageshadow="2"
     inkscape:pageopacity="0.0"
     inkscape:pagecheckerboard="0"
     inkscape:deskcolor="#d1d1d1"
     inkscape:document-units="mm"
     inkscape:zoom="1.2062326"
     inkscape:cx="376.79298"
     inkscape:cy="551.30327"
     inkscape:window-width="2048"
     inkscape:window-height="1099"
     inkscape:window-x="0"
     inkscape:window-y="25"
     inkscape:window-maximized="0"
     inkscape:current-layer="layer1" /><defs
     id="defs1" /><g
     inkscape:label="Layer 1"
     inkscape:groupmode="layer"
     id="layer1"
     transform="translate(-31.231583,-83.229276)"><path
       style="fill:#000000"
       d="m 84.015956,240.82546 c -1.891771,-0.771 -4.067112,-1.72301 -4.834092,-2.11559 -1.294454,-0.66257 -1.372407,-0.75598 -1.086468,-1.30188 0.169422,-0.32345 4.253313,-7.43418 9.075312,-15.80163 4.821999,-8.36745 8.91255,-15.54657 9.090113,-15.9536 0.804566,-1.84431 0.115064,-4.7702 -1.406099,-5.96674 -2.071494,-1.62944 -5.361428,-1.34014 -7.06518,0.62127 -0.252861,0.2911 -4.598642,7.6998 -9.657292,16.46377 -5.058649,8.76397 -9.28641,15.93749 -9.395024,15.94115 -0.515541,0.0174 -8.400893,-6.00404 -8.401283,-6.41537 -1.07e-4,-0.11237 0.462066,-1.1244 1.027051,-2.24896 3.751486,-7.46703 4.271317,-16.99945 1.359567,-24.9311 -2.98865,-8.14113 -9.532866,-14.89544 -17.57073,-18.13481 -3.046638,-1.22783 -7.548439,-2.23702 -10.001891,-2.24216 -1.06369,-0.002 -2.081416,-0.0977 -2.261613,-0.21214 -0.180198,-0.11445 -0.451674,-0.85676 -0.60328,-1.64959 -0.28429,-1.4867 -1.053463,-7.69955 -1.053463,-8.50914 0,-0.42706 1.215935,-0.46105 18.983853,-0.53079 l 18.983853,-0.0745 1.124184,-0.60054 c 3.538154,-1.89008 3.557518,-7.0451 0.03368,-8.96654 -0.840511,-0.45831 -2.022563,-0.49139 -20.009427,-0.55994 -17.920456,-0.0683 -19.116144,-0.1015 -19.116144,-0.53079 0,-0.8625 0.798549,-7.33256 1.088969,-8.82312 l 0.290167,-1.48926 2.683869,-0.18502 c 16.501625,-1.13759 29.167357,-14.44462 29.283235,-30.76594 0.03833,-5.39909 -0.96642,-9.94693 -3.162573,-14.31487 -0.593726,-1.18086 -1.079502,-2.264935 -1.079502,-2.409053 0,-0.292581 3.942371,-3.490852 6.665007,-5.407025 l 1.770216,-1.245866 1.437622,2.459402 c 0.790691,1.352671 4.797637,8.293462 8.904324,15.423982 8.874663,15.40925 8.469223,14.76259 9.813594,15.65226 2.136041,1.41356 5.377415,0.74967 6.852852,-1.40359 0.813246,-1.18685 1.035196,-3.52659 0.464177,-4.89323 -0.217463,-0.52047 -4.466666,-7.9976 -9.442674,-16.61586 -4.976007,-8.618259 -9.007471,-15.705188 -8.958807,-15.748732 0.579418,-0.518454 9.064272,-4.110636 9.709459,-4.110636 0.135568,0 0.964219,1.101328 1.841447,2.447396 2.568907,3.941872 6.750286,7.707095 11.159445,10.048791 14.21328,7.548641 32.19834,2.952244 40.87813,-10.44711 0.7276,-1.123233 1.42132,-2.04378 1.54159,-2.04566 0.34569,-0.0054 5.94605,2.237979 7.93314,3.177843 1.38989,0.657393 1.76413,0.950691 1.63694,1.282883 -0.0907,0.236856 -4.0538,7.157679 -8.80691,15.379605 -4.7531,8.22193 -8.90905,15.48474 -9.23542,16.13958 -0.65534,1.31486 -0.76929,2.88392 -0.30938,4.26 1.1909,3.5633 5.96914,4.40301 8.59928,1.5112 0.30605,-0.3365 4.69158,-7.78534 9.74561,-16.55297 l 9.18916,-15.941141 1.83514,1.276491 c 1.00933,0.70207 2.94944,2.15791 4.31135,3.235201 l 2.47621,1.95871 -1.12687,2.254899 c -4.75866,9.52227 -4.3662,20.9794 1.03153,30.11389 5.26699,8.91324 14.48531,14.5596 24.94801,15.28103 2.16067,0.14899 2.7304,0.2729 2.83203,0.61595 0.22356,0.75467 0.92246,5.91001 1.10739,8.16851 l 0.17873,2.18281 -18.62502,0.001 c -11.9955,9.5e-4 -18.97526,0.0988 -19.60899,0.27475 -1.92623,0.53497 -3.64623,2.76777 -3.64623,4.73331 0,1.81906 1.1557,3.73601 2.77812,4.60807 1.05082,0.56481 1.19316,0.56939 20.04219,0.64492 l 18.98385,0.0761 v 0.7193 c 0,1.082 -0.75106,7.28479 -1.03519,8.54937 -0.13683,0.60897 -0.40637,1.20714 -0.59898,1.32926 -0.19261,0.12212 -1.2205,0.22386 -2.28419,0.22609 -4.19832,0.009 -10.49546,2.0287 -14.881,4.77332 -13.5313,8.46835 -18.4196,26.14664 -11.2053,40.5234 l 1.15309,2.29788 -2.4414,1.95183 c -1.34277,1.07351 -3.25386,2.52674 -4.24687,3.22939 -1.51981,1.07542 -1.85887,1.21935 -2.14299,0.90966 -0.18563,-0.20234 -4.3738,-7.37464 -9.30703,-15.93845 -4.93323,-8.56382 -9.35819,-15.97133 -9.83324,-16.46115 -1.46328,-1.50877 -4.28216,-1.83655 -6.17555,-0.7181 -2.03863,1.20425 -2.90987,4.17107 -1.89445,6.45111 0.28494,0.63981 4.52495,8.09804 9.42225,16.57386 4.8973,8.47581 8.90419,15.50372 8.90419,15.61756 0,0.22131 -5.07647,2.51518 -8.0091,3.61902 l -1.77203,0.66699 -1.56233,-2.31124 c -2.05087,-3.03396 -4.05576,-5.20467 -6.72228,-7.27827 -4.06423,-3.16052 -8.81159,-5.29486 -13.66608,-6.14406 -2.93222,-0.51294 -8.50852,-0.50816 -11.46979,0.01 -8.16923,1.42898 -15.781551,6.52888 -20.430682,13.68761 -0.727604,1.12036 -1.382448,2.03483 -1.455208,2.03214 -0.07276,-0.003 -1.680104,-0.63569 -3.571875,-1.40668 z m 4.934116,-0.89671 c 4.860666,-7.23094 12.406758,-12.26112 20.523648,-13.68094 2.96127,-0.51799 8.53757,-0.52277 11.46979,-0.01 8.21621,1.43728 15.79483,6.43181 20.55251,13.54472 l 1.45082,2.16904 1.75539,-0.65824 c 2.13119,-0.79916 7.22737,-3.02626 7.52996,-3.2907 0.12008,-0.10493 -3.7975,-7.14104 -8.70574,-15.6358 -4.90824,-8.49475 -9.1572,-15.96848 -9.44214,-16.60829 -1.40349,-3.15141 0.65885,-6.86298 4.07348,-7.33101 1.70935,-0.23429 3.26982,0.28387 4.41102,1.46469 0.56077,0.58024 4.80763,7.66105 9.94942,16.58869 4.93406,8.56698 9.06368,15.68164 9.17694,15.81036 0.22686,0.25782 2.57153,-1.33426 6.11496,-4.15219 l 2.30252,-1.83108 -1.14649,-2.28476 c -8.17877,-16.29882 -0.72596,-36.1649 16.21194,-43.21426 3.15243,-1.31201 7.59949,-2.32986 10.17928,-2.32986 1.25982,0 2.06728,-0.11995 2.24443,-0.3334 0.29473,-0.35513 0.95959,-4.54854 1.25647,-7.9248 l 0.17942,-2.04048 -18.88171,-0.0762 c -18.83533,-0.076 -18.88436,-0.0776 -19.96149,-0.65407 -1.71963,-0.92033 -3.02126,-3.01569 -3.02126,-4.86362 0,-1.97826 1.92546,-4.44658 3.89538,-4.99363 0.65327,-0.18141 7.40371,-0.27805 19.4906,-0.27901 l 18.49118,-0.001 -0.17986,-2.05052 c -0.19003,-2.16645 -0.9001,-7.40057 -1.07233,-7.90446 -0.0599,-0.17523 -1.17165,-0.37499 -2.70242,-0.48558 -10.45981,-0.75569 -19.77941,-6.5249 -25.10846,-15.54316 -5.3543,-9.06098 -5.78579,-20.605 -1.11903,-29.9381 0.57179,-1.14352 0.97964,-2.235403 0.90634,-2.426409 -0.14374,-0.37458 -4.14427,-3.536119 -6.51952,-5.152251 l -1.45875,-0.992538 -9.1893,15.923758 c -5.05411,8.75807 -9.51736,16.2289 -9.91833,16.60185 -1.38953,1.29241 -2.15943,1.62858 -3.72646,1.62716 -1.71439,-0.002 -2.72252,-0.44422 -3.91241,-1.7179 -1.52665,-1.63416 -1.84277,-3.97889 -0.81458,-6.04185 0.32638,-0.65484 4.48232,-7.91765 9.23543,-16.13958 4.75311,-8.221926 8.70701,-15.12755 8.78646,-15.345832 0.15851,-0.435491 -0.6268,-0.839137 -5.40269,-2.77696 -4.25496,-1.726459 -3.73275,-1.783527 -5.32172,0.581571 -9.064,13.491335 -26.76415,18.008441 -40.98036,10.458243 -4.324047,-2.296493 -8.815793,-6.31946 -11.293585,-10.114937 -0.8075,-1.236927 -1.510883,-2.295636 -1.563074,-2.352686 -0.146195,-0.159811 -4.45213,1.500553 -7.210928,2.780526 l -2.472801,1.147282 0.522567,0.866085 c 2.270668,3.763328 17.659197,30.635868 17.971178,31.382538 0.981889,2.35 -0.09139,5.38252 -2.355329,6.65492 -2.330413,1.30977 -5.227806,0.62064 -6.898034,-1.64065 -0.353553,-0.47867 -4.670365,-7.86075 -9.592915,-16.40462 l -8.95009,-15.534303 -1.739429,1.226234 c -2.708744,1.909564 -6.369638,4.859796 -6.369638,5.133147 0,0.135862 0.485776,1.213182 1.079502,2.394042 4.594756,9.13852 4.200516,20.58536 -1.020201,29.62174 -5.248569,9.08458 -14.680438,14.95705 -25.248442,15.72017 l -2.567268,0.18539 -0.2768,1.35853 c -0.251865,1.23615 -1.070956,7.78306 -1.070956,8.56005 0,0.25403 4.172257,0.34162 18.983853,0.39849 18.003805,0.0691 19.03166,0.0986 19.909895,0.57079 3.80075,2.04347 3.794211,7.28849 -0.01175,9.42399 l -1.178876,0.66146 -18.87656,0.0746 -18.87656,0.0746 0.169561,1.64521 c 0.352809,3.4232 1.009009,7.74816 1.243172,8.19364 0.198893,0.37838 0.607289,0.46302 2.2342,0.46302 2.51095,0 6.96361,0.99073 10.058728,2.23811 11.779144,4.74716 19.681834,16.34914 19.681834,28.89502 0,5.49954 -0.856751,9.40895 -3.106613,14.17568 -0.669396,1.41823 -1.166986,2.61544 -1.105756,2.66048 0.06123,0.045 0.766171,0.6264 1.566536,1.29193 2.606289,2.16721 6.400145,4.76969 6.619262,4.54063 0.11771,-0.12305 4.230724,-7.18889 9.140031,-15.70186 4.909307,-8.51296 9.223151,-15.8352 9.586318,-16.27163 2.472361,-2.97112 7.049343,-2.47762 8.797239,0.94854 0.615596,1.20667 0.678137,3.23858 0.138783,4.50901 -0.20833,0.49072 -4.436469,7.91406 -9.395864,16.49631 l -9.017081,15.60411 1.259926,0.64707 c 0.959555,0.49282 7.88182,3.41324 8.197176,3.45829 0.03195,0.005 0.678348,-0.91443 1.43645,-2.04222 z"
       id="path1"
       sodipodi:nodetypes="csssssssssssscsssscssssscssssscssssssssssssssssssscsscssssscccssscssscsscsssssssssscssscsccccscscssssssssscssssscssssccssssssscsscsssssssssscssssscssssscssssscccsssssssssssssscsccccc" /></g></svg>
